<?xml version="1.0" encoding="UTF-8" standalone="no"?>
<!DOCTYPE svg PUBLIC "-//W3C//DTD SVG 1.1//EN"
 "http://www.w3.org/Graphics/SVG/1.1/DTD/svg11.dtd">
<!-- Generated by graphviz version 2.38.0 (20140413.2041)
 -->
<!-- Title: %3 Pages: 1 -->
<svg width="3873pt" height="328pt"
 viewBox="0.00 0.00 3873.21 328.49" xmlns="http://www.w3.org/2000/svg" xmlns:xlink="http://www.w3.org/1999/xlink">
<g id="graph0" class="graph" transform="scale(1 1) rotate(0) translate(4 324.494)">
<title>%3</title>
<polygon fill="white" stroke="none" points="-4,4 -4,-324.494 3869.21,-324.494 3869.21,4 -4,4"/>
<!-- STATS5 -->
<g id="node1" class="node"><title>STATS5</title>
<ellipse fill="none" stroke="black" cx="128.604" cy="-219.078" rx="128.708" ry="29.3315"/>
<text text-anchor="middle" x="128.604" y="-223.278" font-family="Times,serif" font-size="14.00">XF:03IDC&#45;ES{Tpx:1}Stats5:</text>
<text text-anchor="middle" x="128.604" y="-206.478" font-family="Times,serif" font-size="14.00">STATS5</text>
</g>
<!-- FileNexus1 -->
<g id="node2" class="node"><title>FileNexus1</title>
<ellipse fill="none" stroke="black" cx="409.604" cy="-219.078" rx="134.789" ry="29.3315"/>
<text text-anchor="middle" x="409.604" y="-223.278" font-family="Times,serif" font-size="14.00">XF:03IDC&#45;ES{Tpx:1}Nexus1:</text>
<text text-anchor="middle" x="409.604" y="-206.478" font-family="Times,serif" font-size="14.00">FileNexus1</text>
</g>
<!-- STATS1 -->
<g id="node3" class="node"><title>STATS1</title>
<ellipse fill="none" stroke="black" cx="3461.6" cy="-124.247" rx="128.708" ry="29.3315"/>
<text text-anchor="middle" x="3461.6" y="-128.447" font-family="Times,serif" font-size="14.00">XF:03IDC&#45;ES{Tpx:1}Stats1:</text>
<text text-anchor="middle" x="3461.6" y="-111.647" font-family="Times,serif" font-size="14.00">STATS1</text>
</g>
<!-- FileNetCDF1 -->
<g id="node4" class="node"><title>FileNetCDF1</title>
<ellipse fill="none" stroke="black" cx="702.604" cy="-219.078" rx="140.902" ry="29.3315"/>
<text text-anchor="middle" x="702.604" y="-223.278" font-family="Times,serif" font-size="14.00">XF:03IDC&#45;ES{Tpx:1}netCDF1:</text>
<text text-anchor="middle" x="702.604" y="-206.478" font-family="Times,serif" font-size="14.00">FileNetCDF1</text>
</g>
<!-- STATS3 -->
<g id="node5" class="node"><title>STATS3</title>
<ellipse fill="none" stroke="black" cx="1809.6" cy="-124.247" rx="128.708" ry="29.3315"/>
<text text-anchor="middle" x="1809.6" y="-128.447" font-family="Times,serif" font-size="14.00">XF:03IDC&#45;ES{Tpx:1}Stats3:</text>
<text text-anchor="middle" x="1809.6" y="-111.647" font-family="Times,serif" font-size="14.00">STATS3</text>
</g>
<!-- FileJPEG1 -->
<g id="node6" class="node"><title>FileJPEG1</title>
<ellipse fill="none" stroke="black" cx="993.604" cy="-219.078" rx="131.803" ry="29.3315"/>
<text text-anchor="middle" x="993.604" y="-223.278" font-family="Times,serif" font-size="14.00">XF:03IDC&#45;ES{Tpx:1}JPEG1:</text>
<text text-anchor="middle" x="993.604" y="-206.478" font-family="Times,serif" font-size="14.00">FileJPEG1</text>
</g>
<!-- OVER1 -->
<g id="node7" class="node"><title>OVER1</title>
<ellipse fill="none" stroke="black" cx="1272.6" cy="-219.078" rx="129.281" ry="29.3315"/>
<text text-anchor="middle" x="1272.6" y="-223.278" font-family="Times,serif" font-size="14.00">XF:03IDC&#45;ES{Tpx:1}Over1:</text>
<text text-anchor="middle" x="1272.6" y="-206.478" font-family="Times,serif" font-size="14.00">OVER1</text>
</g>
<!-- CC2 -->
<g id="node8" class="node"><title>CC2</title>
<ellipse fill="none" stroke="black" cx="1542.6" cy="-219.078" rx="122.617" ry="29.3315"/>
<text text-anchor="middle" x="1542.6" y="-223.278" font-family="Times,serif" font-size="14.00">XF:03IDC&#45;ES{Tpx:1}CC2:</text>
<text text-anchor="middle" x="1542.6" y="-206.478" font-family="Times,serif" font-size="14.00">CC2</text>
</g>
<!-- Image1 -->
<g id="node9" class="node"><title>Image1</title>
<ellipse fill="none" stroke="black" cx="3042.6" cy="-29.4156" rx="133.59" ry="29.3315"/>
<text text-anchor="middle" x="3042.6" y="-33.6156" font-family="Times,serif" font-size="14.00">XF:03IDC&#45;ES{Tpx:1}image1:</text>
<text text-anchor="middle" x="3042.6" y="-16.8156" font-family="Times,serif" font-size="14.00">Image1</text>
</g>
<!-- STATS2 -->
<g id="node10" class="node"><title>STATS2</title>
<ellipse fill="none" stroke="black" cx="3736.6" cy="-124.247" rx="128.708" ry="29.3315"/>
<text text-anchor="middle" x="3736.6" y="-128.447" font-family="Times,serif" font-size="14.00">XF:03IDC&#45;ES{Tpx:1}Stats2:</text>
<text text-anchor="middle" x="3736.6" y="-111.647" font-family="Times,serif" font-size="14.00">STATS2</text>
</g>
<!-- ROI3 -->
<g id="node11" class="node"><title>ROI3</title>
<ellipse fill="none" stroke="black" cx="1809.6" cy="-219.078" rx="126.297" ry="29.3315"/>
<text text-anchor="middle" x="1809.6" y="-223.278" font-family="Times,serif" font-size="14.00">XF:03IDC&#45;ES{Tpx:1}ROI3:</text>
<text text-anchor="middle" x="1809.6" y="-206.478" font-family="Times,serif" font-size="14.00">ROI3</text>
</g>
<!-- ROI3&#45;&gt;STATS3 -->
<g id="edge5" class="edge"><title>ROI3&#45;&gt;STATS3</title>
<path fill="none" stroke="red" d="M1809.6,-189.468C1809.6,-181.439 1809.6,-172.572 1809.6,-164.056"/>
<polygon fill="red" stroke="red" points="1813.1,-163.922 1809.6,-153.922 1806.1,-163.922 1813.1,-163.922"/>
</g>
<!-- FileHDF1 -->
<g id="node12" class="node"><title>FileHDF1</title>
<ellipse fill="none" stroke="black" cx="2083.6" cy="-219.078" rx="129.301" ry="29.3315"/>
<text text-anchor="middle" x="2083.6" y="-223.278" font-family="Times,serif" font-size="14.00">XF:03IDC&#45;ES{Tpx:1}HDF1:</text>
<text text-anchor="middle" x="2083.6" y="-206.478" font-family="Times,serif" font-size="14.00">FileHDF1</text>
</g>
<!-- ROI4 -->
<g id="node13" class="node"><title>ROI4</title>
<ellipse fill="none" stroke="black" cx="2357.6" cy="-219.078" rx="126.297" ry="29.3315"/>
<text text-anchor="middle" x="2357.6" y="-223.278" font-family="Times,serif" font-size="14.00">XF:03IDC&#45;ES{Tpx:1}ROI4:</text>
<text text-anchor="middle" x="2357.6" y="-206.478" font-family="Times,serif" font-size="14.00">ROI4</text>
</g>
<!-- STATS4 -->
<g id="node17" class="node"><title>STATS4</title>
<ellipse fill="none" stroke="black" cx="2357.6" cy="-124.247" rx="128.708" ry="29.3315"/>
<text text-anchor="middle" x="2357.6" y="-128.447" font-family="Times,serif" font-size="14.00">XF:03IDC&#45;ES{Tpx:1}Stats4:</text>
<text text-anchor="middle" x="2357.6" y="-111.647" font-family="Times,serif" font-size="14.00">STATS4</text>
</g>
<!-- ROI4&#45;&gt;STATS4 -->
<g id="edge17" class="edge"><title>ROI4&#45;&gt;STATS4</title>
<path fill="none" stroke="red" d="M2357.6,-189.468C2357.6,-181.439 2357.6,-172.572 2357.6,-164.056"/>
<polygon fill="red" stroke="red" points="2361.1,-163.922 2357.6,-153.922 2354.1,-163.922 2361.1,-163.922"/>
</g>
<!-- FileMagick1 -->
<g id="node14" class="node"><title>FileMagick1</title>
<ellipse fill="none" stroke="black" cx="2641.6" cy="-219.078" rx="139.687" ry="29.3315"/>
<text text-anchor="middle" x="2641.6" y="-223.278" font-family="Times,serif" font-size="14.00">XF:03IDC&#45;ES{Tpx:1}Magick1:</text>
<text text-anchor="middle" x="2641.6" y="-206.478" font-family="Times,serif" font-size="14.00">FileMagick1</text>
</g>
<!-- CC1 -->
<g id="node15" class="node"><title>CC1</title>
<ellipse fill="none" stroke="black" cx="2921.6" cy="-219.078" rx="122.617" ry="29.3315"/>
<text text-anchor="middle" x="2921.6" y="-223.278" font-family="Times,serif" font-size="14.00">XF:03IDC&#45;ES{Tpx:1}CC1:</text>
<text text-anchor="middle" x="2921.6" y="-206.478" font-family="Times,serif" font-size="14.00">CC1</text>
</g>
<!-- PROC1 -->
<g id="node16" class="node"><title>PROC1</title>
<ellipse fill="none" stroke="black" cx="3189.6" cy="-219.078" rx="127.494" ry="29.3315"/>
<text text-anchor="middle" x="3189.6" y="-223.278" font-family="Times,serif" font-size="14.00">XF:03IDC&#45;ES{Tpx:1}Proc1:</text>
<text text-anchor="middle" x="3189.6" y="-206.478" font-family="Times,serif" font-size="14.00">PROC1</text>
</g>
<!-- TRANS1 -->
<g id="node18" class="node"><title>TRANS1</title>
<ellipse fill="none" stroke="black" cx="3183.6" cy="-124.247" rx="131.783" ry="29.3315"/>
<text text-anchor="middle" x="3183.6" y="-128.447" font-family="Times,serif" font-size="14.00">XF:03IDC&#45;ES{Tpx:1}Trans1:</text>
<text text-anchor="middle" x="3183.6" y="-111.647" font-family="Times,serif" font-size="14.00">TRANS1</text>
</g>
<!-- PROC1&#45;&gt;TRANS1 -->
<g id="edge18" class="edge"><title>PROC1&#45;&gt;TRANS1</title>
<path fill="none" stroke="green" d="M3187.75,-189.468C3187.24,-181.439 3186.66,-172.572 3186.11,-164.056"/>
<polygon fill="green" stroke="green" points="3189.6,-163.676 3185.46,-153.922 3182.61,-164.127 3189.6,-163.676"/>
</g>
<!-- TRANS1&#45;&gt;Image1 -->
<g id="edge9" class="edge"><title>TRANS1&#45;&gt;Image1</title>
<path fill="none" stroke="green" d="M3142.44,-96.1467C3126.8,-85.8473 3108.81,-74.0036 3092.45,-63.2317"/>
<polygon fill="green" stroke="green" points="3094.34,-60.286 3084.06,-57.7102 3090.49,-66.1326 3094.34,-60.286"/>
</g>
<!-- FileTIFF1 -->
<g id="node20" class="node"><title>FileTIFF1</title>
<ellipse fill="none" stroke="black" cx="3323.6" cy="-29.4156" rx="129.908" ry="29.3315"/>
<text text-anchor="middle" x="3323.6" y="-33.6156" font-family="Times,serif" font-size="14.00">XF:03IDC&#45;ES{Tpx:1}TIFF1:</text>
<text text-anchor="middle" x="3323.6" y="-16.8156" font-family="Times,serif" font-size="14.00">FileTIFF1</text>
</g>
<!-- TRANS1&#45;&gt;FileTIFF1 -->
<g id="edge20" class="edge"><title>TRANS1&#45;&gt;FileTIFF1</title>
<path fill="none" stroke="red" d="M3224.47,-96.1467C3240.14,-85.7562 3258.18,-73.7938 3274.54,-62.946"/>
<polygon fill="red" stroke="red" points="3276.52,-65.8324 3282.92,-57.389 3272.66,-59.9984 3276.52,-65.8324"/>
</g>
<!-- ROI1 -->
<g id="node19" class="node"><title>ROI1</title>
<ellipse fill="none" stroke="black" cx="3461.6" cy="-219.078" rx="126.297" ry="29.3315"/>
<text text-anchor="middle" x="3461.6" y="-223.278" font-family="Times,serif" font-size="14.00">XF:03IDC&#45;ES{Tpx:1}ROI1:</text>
<text text-anchor="middle" x="3461.6" y="-206.478" font-family="Times,serif" font-size="14.00">ROI1</text>
</g>
<!-- ROI1&#45;&gt;STATS1 -->
<g id="edge3" class="edge"><title>ROI1&#45;&gt;STATS1</title>
<path fill="none" stroke="green" d="M3461.6,-189.468C3461.6,-181.439 3461.6,-172.572 3461.6,-164.056"/>
<polygon fill="green" stroke="green" points="3465.1,-163.922 3461.6,-153.922 3458.1,-163.922 3465.1,-163.922"/>
</g>
<!-- ROI2 -->
<g id="node21" class="node"><title>ROI2</title>
<ellipse fill="none" stroke="black" cx="3734.6" cy="-219.078" rx="126.297" ry="29.3315"/>
<text text-anchor="middle" x="3734.6" y="-223.278" font-family="Times,serif" font-size="14.00">XF:03IDC&#45;ES{Tpx:1}ROI2:</text>
<text text-anchor="middle" x="3734.6" y="-206.478" font-family="Times,serif" font-size="14.00">ROI2</text>
</g>
<!-- ROI2&#45;&gt;STATS2 -->
<g id="edge10" class="edge"><title>ROI2&#45;&gt;STATS2</title>
<path fill="none" stroke="red" d="M3735.22,-189.468C3735.39,-181.439 3735.58,-172.572 3735.77,-164.056"/>
<polygon fill="red" stroke="red" points="3739.27,-163.995 3735.99,-153.922 3732.27,-163.844 3739.27,-163.995"/>
</g>
<!-- TIM -->
<g id="node22" class="node"><title>TIM</title>
<ellipse fill="none" stroke="black" cx="1946.6" cy="-302.494" rx="28.9715" ry="18"/>
<text text-anchor="middle" x="1946.6" y="-298.294" font-family="Times,serif" font-size="14.00">TIM</text>
</g>
<!-- TIM&#45;&gt;STATS5 -->
<g id="edge1" class="edge"><title>TIM&#45;&gt;STATS5</title>
<path fill="none" stroke="red" d="M1917.78,-301.268C1723.61,-299.642 604.126,-288.631 265.604,-248.494 252.821,-246.978 239.46,-244.873 226.308,-242.486"/>
<polygon fill="red" stroke="red" points="226.778,-239.013 216.304,-240.611 225.488,-245.893 226.778,-239.013"/>
</g>
<!-- TIM&#45;&gt;FileNexus1 -->
<g id="edge2" class="edge"><title>TIM&#45;&gt;FileNexus1</title>
<path fill="none" stroke="red" d="M1917.83,-301.021C1743.87,-298.066 830.718,-281.205 552.604,-248.494 539.253,-246.924 525.287,-244.782 511.536,-242.373"/>
<polygon fill="red" stroke="red" points="512.035,-238.907 501.573,-240.577 510.793,-245.796 512.035,-238.907"/>
</g>
<!-- TIM&#45;&gt;FileNetCDF1 -->
<g id="edge4" class="edge"><title>TIM&#45;&gt;FileNetCDF1</title>
<path fill="none" stroke="red" d="M1917.75,-301.563C1791.3,-301.56 1273.71,-298.336 852.604,-248.494 838.596,-246.836 823.93,-244.639 809.484,-242.199"/>
<polygon fill="red" stroke="red" points="809.98,-238.733 799.53,-240.475 808.786,-245.631 809.98,-238.733"/>
</g>
<!-- TIM&#45;&gt;FileJPEG1 -->
<g id="edge6" class="edge"><title>TIM&#45;&gt;FileJPEG1</title>
<path fill="none" stroke="red" d="M1917.7,-301.003C1812.35,-298.917 1439.2,-288.942 1134.6,-248.494 1121.78,-246.791 1108.38,-244.614 1095.15,-242.225"/>
<polygon fill="red" stroke="red" points="1095.55,-238.74 1085.08,-240.36 1094.28,-245.623 1095.55,-238.74"/>
</g>
<!-- TIM&#45;&gt;OVER1 -->
<g id="edge7" class="edge"><title>TIM&#45;&gt;OVER1</title>
<path fill="none" stroke="red" d="M1918,-299.722C1837.68,-294.521 1603.36,-277.787 1410.6,-248.494 1398.49,-246.652 1385.83,-244.443 1373.3,-242.081"/>
<polygon fill="red" stroke="red" points="1373.78,-238.608 1363.29,-240.158 1372.45,-245.483 1373.78,-238.608"/>
</g>
<!-- TIM&#45;&gt;CC2 -->
<g id="edge8" class="edge"><title>TIM&#45;&gt;CC2</title>
<path fill="none" stroke="red" d="M1919.54,-296.403C1870.61,-287.156 1764.15,-266.855 1674.6,-248.494 1663.77,-246.272 1652.45,-243.905 1641.18,-241.52"/>
<polygon fill="red" stroke="red" points="1641.82,-238.077 1631.31,-239.423 1640.36,-244.925 1641.82,-238.077"/>
</g>
<!-- TIM&#45;&gt;ROI3 -->
<g id="edge11" class="edge"><title>TIM&#45;&gt;ROI3</title>
<path fill="none" stroke="green" d="M1926.39,-289.481C1909.7,-279.562 1885.23,-265.02 1862.99,-251.806"/>
<polygon fill="green" stroke="green" points="1864.66,-248.728 1854.28,-246.628 1861.09,-254.745 1864.66,-248.728"/>
</g>
<!-- TIM&#45;&gt;FileHDF1 -->
<g id="edge12" class="edge"><title>TIM&#45;&gt;FileHDF1</title>
<path fill="none" stroke="red" d="M1966.82,-289.481C1983.44,-279.601 2007.79,-265.134 2029.95,-251.962"/>
<polygon fill="red" stroke="red" points="2031.83,-254.916 2038.64,-246.798 2028.26,-248.898 2031.83,-254.916"/>
</g>
<!-- TIM&#45;&gt;ROI4 -->
<g id="edge13" class="edge"><title>TIM&#45;&gt;ROI4</title>
<path fill="none" stroke="green" d="M1973.95,-296.369C2023.42,-287.067 2131.03,-266.683 2221.6,-248.494 2232.67,-246.272 2244.23,-243.912 2255.75,-241.54"/>
<polygon fill="green" stroke="green" points="2256.75,-244.907 2265.83,-239.456 2255.33,-238.052 2256.75,-244.907"/>
</g>
<!-- TIM&#45;&gt;FileMagick1 -->
<g id="edge14" class="edge"><title>TIM&#45;&gt;FileMagick1</title>
<path fill="none" stroke="red" d="M1975.13,-299.651C2056.34,-294.207 2295.58,-276.783 2492.6,-248.494 2505.92,-246.581 2519.86,-244.3 2533.64,-241.874"/>
<polygon fill="red" stroke="red" points="2534.41,-245.292 2543.64,-240.085 2533.18,-238.402 2534.41,-245.292"/>
</g>
<!-- TIM&#45;&gt;CC1 -->
<g id="edge15" class="edge"><title>TIM&#45;&gt;CC1</title>
<path fill="none" stroke="red" d="M1975.55,-301.255C2083.57,-300.03 2473.23,-292.623 2790.6,-248.494 2802.4,-246.854 2814.71,-244.734 2826.87,-242.392"/>
<polygon fill="red" stroke="red" points="2827.9,-245.756 2837.02,-240.378 2826.53,-238.89 2827.9,-245.756"/>
</g>
<!-- TIM&#45;&gt;PROC1 -->
<g id="edge16" class="edge"><title>TIM&#45;&gt;PROC1</title>
<path fill="none" stroke="green" d="M1975.4,-301.783C2102.7,-302.711 2627.51,-302.861 3053.6,-248.494 3065.97,-246.916 3078.89,-244.817 3091.63,-242.472"/>
<polygon fill="green" stroke="green" points="3092.62,-245.846 3101.79,-240.543 3091.32,-238.968 3092.62,-245.846"/>
</g>
<!-- TIM&#45;&gt;ROI1 -->
<g id="edge19" class="edge"><title>TIM&#45;&gt;ROI1</title>
<path fill="none" stroke="green" d="M1975.35,-301.046C2148.17,-298.253 3050.8,-282.242 3325.6,-248.494 3338.29,-246.936 3351.55,-244.805 3364.61,-242.406"/>
<polygon fill="green" stroke="green" points="3365.37,-245.825 3374.54,-240.524 3364.06,-238.947 3365.37,-245.825"/>
</g>
<!-- TIM&#45;&gt;ROI2 -->
<g id="edge21" class="edge"><title>TIM&#45;&gt;ROI2</title>
<path fill="none" stroke="green" d="M1975.52,-301.242C2167.84,-299.462 3264.66,-287.709 3596.6,-248.494 3609.9,-246.924 3623.81,-244.726 3637.47,-242.242"/>
<polygon fill="green" stroke="green" points="3638.18,-245.67 3647.37,-240.387 3636.89,-238.79 3638.18,-245.67"/>
</g>
</g>
</svg>
