<?xml version="1.0" encoding="UTF-8" standalone="no"?>
<!DOCTYPE svg PUBLIC "-//W3C//DTD SVG 1.1//EN"
 "http://www.w3.org/Graphics/SVG/1.1/DTD/svg11.dtd">
<!-- Generated by graphviz version 2.38.0 (20140413.2041)
 -->
<!-- Title: %3 Pages: 1 -->
<svg width="3866pt" height="328pt"
 viewBox="0.00 0.00 3866.05 328.49" xmlns="http://www.w3.org/2000/svg" xmlns:xlink="http://www.w3.org/1999/xlink">
<g id="graph0" class="graph" transform="scale(1 1) rotate(0) translate(4 324.494)">
<title>%3</title>
<polygon fill="white" stroke="none" points="-4,4 -4,-324.494 3862.05,-324.494 3862.05,4 -4,4"/>
<!-- FileHDF1 -->
<g id="node1" class="node"><title>FileHDF1</title>
<ellipse fill="none" stroke="black" cx="129.15" cy="-219.078" rx="129.301" ry="29.3315"/>
<text text-anchor="middle" x="129.15" y="-223.278" font-family="Times,serif" font-size="14.00">XF:03IDC&#45;ES{Tpx:1}HDF1:</text>
<text text-anchor="middle" x="129.15" y="-206.478" font-family="Times,serif" font-size="14.00">FileHDF1</text>
</g>
<!-- FileMagick1 -->
<g id="node2" class="node"><title>FileMagick1</title>
<ellipse fill="none" stroke="black" cx="416.15" cy="-219.078" rx="139.687" ry="29.3315"/>
<text text-anchor="middle" x="416.15" y="-223.278" font-family="Times,serif" font-size="14.00">XF:03IDC&#45;ES{Tpx:1}Magick1:</text>
<text text-anchor="middle" x="416.15" y="-206.478" font-family="Times,serif" font-size="14.00">FileMagick1</text>
</g>
<!-- ROI3 -->
<g id="node3" class="node"><title>ROI3</title>
<ellipse fill="none" stroke="black" cx="700.15" cy="-219.078" rx="126.297" ry="29.3315"/>
<text text-anchor="middle" x="700.15" y="-223.278" font-family="Times,serif" font-size="14.00">XF:03IDC&#45;ES{Tpx:1}ROI3:</text>
<text text-anchor="middle" x="700.15" y="-206.478" font-family="Times,serif" font-size="14.00">ROI3</text>
</g>
<!-- STATS3 -->
<g id="node20" class="node"><title>STATS3</title>
<ellipse fill="none" stroke="black" cx="700.15" cy="-124.247" rx="128.708" ry="29.3315"/>
<text text-anchor="middle" x="700.15" y="-128.447" font-family="Times,serif" font-size="14.00">XF:03IDC&#45;ES{Tpx:1}Stats3:</text>
<text text-anchor="middle" x="700.15" y="-111.647" font-family="Times,serif" font-size="14.00">STATS3</text>
</g>
<!-- ROI3&#45;&gt;STATS3 -->
<g id="edge20" class="edge"><title>ROI3&#45;&gt;STATS3</title>
<path fill="none" stroke="black" d="M700.15,-189.468C700.15,-181.439 700.15,-172.572 700.15,-164.056"/>
<polygon fill="black" stroke="black" points="703.65,-163.922 700.15,-153.922 696.65,-163.922 703.65,-163.922"/>
</g>
<!-- OVER1 -->
<g id="node4" class="node"><title>OVER1</title>
<ellipse fill="none" stroke="black" cx="974.15" cy="-219.078" rx="129.281" ry="29.3315"/>
<text text-anchor="middle" x="974.15" y="-223.278" font-family="Times,serif" font-size="14.00">XF:03IDC&#45;ES{Tpx:1}Over1:</text>
<text text-anchor="middle" x="974.15" y="-206.478" font-family="Times,serif" font-size="14.00">OVER1</text>
</g>
<!-- FileNetCDF1 -->
<g id="node5" class="node"><title>FileNetCDF1</title>
<ellipse fill="none" stroke="black" cx="1262.15" cy="-219.078" rx="140.902" ry="29.3315"/>
<text text-anchor="middle" x="1262.15" y="-223.278" font-family="Times,serif" font-size="14.00">XF:03IDC&#45;ES{Tpx:1}netCDF1:</text>
<text text-anchor="middle" x="1262.15" y="-206.478" font-family="Times,serif" font-size="14.00">FileNetCDF1</text>
</g>
<!-- STATS1 -->
<g id="node6" class="node"><title>STATS1</title>
<ellipse fill="none" stroke="black" cx="3452.15" cy="-124.247" rx="128.708" ry="29.3315"/>
<text text-anchor="middle" x="3452.15" y="-128.447" font-family="Times,serif" font-size="14.00">XF:03IDC&#45;ES{Tpx:1}Stats1:</text>
<text text-anchor="middle" x="3452.15" y="-111.647" font-family="Times,serif" font-size="14.00">STATS1</text>
</g>
<!-- ROI4 -->
<g id="node7" class="node"><title>ROI4</title>
<ellipse fill="none" stroke="black" cx="1547.15" cy="-219.078" rx="126.297" ry="29.3315"/>
<text text-anchor="middle" x="1547.15" y="-223.278" font-family="Times,serif" font-size="14.00">XF:03IDC&#45;ES{Tpx:1}ROI4:</text>
<text text-anchor="middle" x="1547.15" y="-206.478" font-family="Times,serif" font-size="14.00">ROI4</text>
</g>
<!-- STATS4 -->
<g id="node14" class="node"><title>STATS4</title>
<ellipse fill="none" stroke="black" cx="1544.15" cy="-124.247" rx="128.708" ry="29.3315"/>
<text text-anchor="middle" x="1544.15" y="-128.447" font-family="Times,serif" font-size="14.00">XF:03IDC&#45;ES{Tpx:1}Stats4:</text>
<text text-anchor="middle" x="1544.15" y="-111.647" font-family="Times,serif" font-size="14.00">STATS4</text>
</g>
<!-- ROI4&#45;&gt;STATS4 -->
<g id="edge14" class="edge"><title>ROI4&#45;&gt;STATS4</title>
<path fill="none" stroke="black" d="M1546.23,-189.468C1545.97,-181.439 1545.68,-172.572 1545.4,-164.056"/>
<polygon fill="black" stroke="black" points="1548.9,-163.804 1545.08,-153.922 1541.9,-164.03 1548.9,-163.804"/>
</g>
<!-- PROC1 -->
<g id="node8" class="node"><title>PROC1</title>
<ellipse fill="none" stroke="black" cx="1819.15" cy="-219.078" rx="127.494" ry="29.3315"/>
<text text-anchor="middle" x="1819.15" y="-223.278" font-family="Times,serif" font-size="14.00">XF:03IDC&#45;ES{Tpx:1}Proc1:</text>
<text text-anchor="middle" x="1819.15" y="-206.478" font-family="Times,serif" font-size="14.00">PROC1</text>
</g>
<!-- TRANS1 -->
<g id="node17" class="node"><title>TRANS1</title>
<ellipse fill="none" stroke="black" cx="1822.15" cy="-124.247" rx="131.783" ry="29.3315"/>
<text text-anchor="middle" x="1822.15" y="-128.447" font-family="Times,serif" font-size="14.00">XF:03IDC&#45;ES{Tpx:1}Trans1:</text>
<text text-anchor="middle" x="1822.15" y="-111.647" font-family="Times,serif" font-size="14.00">TRANS1</text>
</g>
<!-- PROC1&#45;&gt;TRANS1 -->
<g id="edge17" class="edge"><title>PROC1&#45;&gt;TRANS1</title>
<path fill="none" stroke="black" d="M1820.07,-189.468C1820.33,-181.439 1820.62,-172.572 1820.9,-164.056"/>
<polygon fill="black" stroke="black" points="1824.4,-164.03 1821.22,-153.922 1817.4,-163.804 1824.4,-164.03"/>
</g>
<!-- FileNexus1 -->
<g id="node9" class="node"><title>FileNexus1</title>
<ellipse fill="none" stroke="black" cx="2099.15" cy="-219.078" rx="134.789" ry="29.3315"/>
<text text-anchor="middle" x="2099.15" y="-223.278" font-family="Times,serif" font-size="14.00">XF:03IDC&#45;ES{Tpx:1}Nexus1:</text>
<text text-anchor="middle" x="2099.15" y="-206.478" font-family="Times,serif" font-size="14.00">FileNexus1</text>
</g>
<!-- STATS5 -->
<g id="node10" class="node"><title>STATS5</title>
<ellipse fill="none" stroke="black" cx="2380.15" cy="-219.078" rx="128.708" ry="29.3315"/>
<text text-anchor="middle" x="2380.15" y="-223.278" font-family="Times,serif" font-size="14.00">XF:03IDC&#45;ES{Tpx:1}Stats5:</text>
<text text-anchor="middle" x="2380.15" y="-206.478" font-family="Times,serif" font-size="14.00">STATS5</text>
</g>
<!-- CC2 -->
<g id="node11" class="node"><title>CC2</title>
<ellipse fill="none" stroke="black" cx="2649.15" cy="-219.078" rx="122.617" ry="29.3315"/>
<text text-anchor="middle" x="2649.15" y="-223.278" font-family="Times,serif" font-size="14.00">XF:03IDC&#45;ES{Tpx:1}CC2:</text>
<text text-anchor="middle" x="2649.15" y="-206.478" font-family="Times,serif" font-size="14.00">CC2</text>
</g>
<!-- CC1 -->
<g id="node12" class="node"><title>CC1</title>
<ellipse fill="none" stroke="black" cx="2912.15" cy="-219.078" rx="122.617" ry="29.3315"/>
<text text-anchor="middle" x="2912.15" y="-223.278" font-family="Times,serif" font-size="14.00">XF:03IDC&#45;ES{Tpx:1}CC1:</text>
<text text-anchor="middle" x="2912.15" y="-206.478" font-family="Times,serif" font-size="14.00">CC1</text>
</g>
<!-- ROI2 -->
<g id="node13" class="node"><title>ROI2</title>
<ellipse fill="none" stroke="black" cx="3179.15" cy="-219.078" rx="126.297" ry="29.3315"/>
<text text-anchor="middle" x="3179.15" y="-223.278" font-family="Times,serif" font-size="14.00">XF:03IDC&#45;ES{Tpx:1}ROI2:</text>
<text text-anchor="middle" x="3179.15" y="-206.478" font-family="Times,serif" font-size="14.00">ROI2</text>
</g>
<!-- STATS2 -->
<g id="node16" class="node"><title>STATS2</title>
<ellipse fill="none" stroke="black" cx="3177.15" cy="-124.247" rx="128.708" ry="29.3315"/>
<text text-anchor="middle" x="3177.15" y="-128.447" font-family="Times,serif" font-size="14.00">XF:03IDC&#45;ES{Tpx:1}Stats2:</text>
<text text-anchor="middle" x="3177.15" y="-111.647" font-family="Times,serif" font-size="14.00">STATS2</text>
</g>
<!-- ROI2&#45;&gt;STATS2 -->
<g id="edge16" class="edge"><title>ROI2&#45;&gt;STATS2</title>
<path fill="none" stroke="black" d="M3178.53,-189.468C3178.36,-181.439 3178.17,-172.572 3177.99,-164.056"/>
<polygon fill="black" stroke="black" points="3181.48,-163.844 3177.77,-153.922 3174.48,-163.995 3181.48,-163.844"/>
</g>
<!-- ROI1 -->
<g id="node15" class="node"><title>ROI1</title>
<ellipse fill="none" stroke="black" cx="3450.15" cy="-219.078" rx="126.297" ry="29.3315"/>
<text text-anchor="middle" x="3450.15" y="-223.278" font-family="Times,serif" font-size="14.00">XF:03IDC&#45;ES{Tpx:1}ROI1:</text>
<text text-anchor="middle" x="3450.15" y="-206.478" font-family="Times,serif" font-size="14.00">ROI1</text>
</g>
<!-- ROI1&#45;&gt;STATS1 -->
<g id="edge6" class="edge"><title>ROI1&#45;&gt;STATS1</title>
<path fill="none" stroke="black" d="M3450.77,-189.468C3450.94,-181.439 3451.13,-172.572 3451.31,-164.056"/>
<polygon fill="black" stroke="black" points="3454.82,-163.995 3451.53,-153.922 3447.82,-163.844 3454.82,-163.995"/>
</g>
<!-- Image1 -->
<g id="node18" class="node"><title>Image1</title>
<ellipse fill="none" stroke="black" cx="1681.15" cy="-29.4156" rx="133.59" ry="29.3315"/>
<text text-anchor="middle" x="1681.15" y="-33.6156" font-family="Times,serif" font-size="14.00">XF:03IDC&#45;ES{Tpx:1}image1:</text>
<text text-anchor="middle" x="1681.15" y="-16.8156" font-family="Times,serif" font-size="14.00">Image1</text>
</g>
<!-- TRANS1&#45;&gt;Image1 -->
<g id="edge18" class="edge"><title>TRANS1&#45;&gt;Image1</title>
<path fill="none" stroke="black" d="M1780.99,-96.1467C1765.34,-85.8473 1747.36,-74.0036 1730.99,-63.2317"/>
<polygon fill="black" stroke="black" points="1732.88,-60.286 1722.61,-57.7102 1729.04,-66.1326 1732.88,-60.286"/>
</g>
<!-- FileTIFF1 -->
<g id="node21" class="node"><title>FileTIFF1</title>
<ellipse fill="none" stroke="black" cx="1962.15" cy="-29.4156" rx="129.908" ry="29.3315"/>
<text text-anchor="middle" x="1962.15" y="-33.6156" font-family="Times,serif" font-size="14.00">XF:03IDC&#45;ES{Tpx:1}TIFF1:</text>
<text text-anchor="middle" x="1962.15" y="-16.8156" font-family="Times,serif" font-size="14.00">FileTIFF1</text>
</g>
<!-- TRANS1&#45;&gt;FileTIFF1 -->
<g id="edge21" class="edge"><title>TRANS1&#45;&gt;FileTIFF1</title>
<path fill="none" stroke="black" d="M1863.02,-96.1467C1878.69,-85.7562 1896.73,-73.7938 1913.09,-62.946"/>
<polygon fill="black" stroke="black" points="1915.07,-65.8324 1921.47,-57.389 1911.2,-59.9984 1915.07,-65.8324"/>
</g>
<!-- FileJPEG1 -->
<g id="node19" class="node"><title>FileJPEG1</title>
<ellipse fill="none" stroke="black" cx="3726.15" cy="-219.078" rx="131.803" ry="29.3315"/>
<text text-anchor="middle" x="3726.15" y="-223.278" font-family="Times,serif" font-size="14.00">XF:03IDC&#45;ES{Tpx:1}JPEG1:</text>
<text text-anchor="middle" x="3726.15" y="-206.478" font-family="Times,serif" font-size="14.00">FileJPEG1</text>
</g>
<!-- TIM -->
<g id="node22" class="node"><title>TIM</title>
<ellipse fill="none" stroke="black" cx="1959.15" cy="-302.494" rx="28.9715" ry="18"/>
<text text-anchor="middle" x="1959.15" y="-298.294" font-family="Times,serif" font-size="14.00">TIM</text>
</g>
<!-- TIM&#45;&gt;FileHDF1 -->
<g id="edge1" class="edge"><title>TIM&#45;&gt;FileHDF1</title>
<path fill="none" stroke="black" d="M1930.45,-301.27C1735.91,-299.651 608.101,-288.635 267.15,-248.494 254.277,-246.978 240.82,-244.872 227.572,-242.486"/>
<polygon fill="black" stroke="black" points="227.968,-238.999 217.496,-240.611 226.687,-245.881 227.968,-238.999"/>
</g>
<!-- TIM&#45;&gt;FileMagick1 -->
<g id="edge2" class="edge"><title>TIM&#45;&gt;FileMagick1</title>
<path fill="none" stroke="black" d="M1930.38,-300.991C1756.44,-297.859 843.388,-280.132 565.15,-248.494 551.119,-246.898 536.428,-244.724 521.97,-242.284"/>
<polygon fill="black" stroke="black" points="522.459,-238.817 512.008,-240.557 521.263,-245.714 522.459,-238.817"/>
</g>
<!-- TIM&#45;&gt;ROI3 -->
<g id="edge3" class="edge"><title>TIM&#45;&gt;ROI3</title>
<path fill="none" stroke="black" d="M1930.37,-301.811C1801.99,-302.873 1268.89,-303.559 836.15,-248.494 823.47,-246.88 810.212,-244.717 797.159,-242.301"/>
<polygon fill="black" stroke="black" points="797.708,-238.843 787.23,-240.409 796.398,-245.719 797.708,-238.843"/>
</g>
<!-- TIM&#45;&gt;OVER1 -->
<g id="edge4" class="edge"><title>TIM&#45;&gt;OVER1</title>
<path fill="none" stroke="black" d="M1930.49,-301.159C1822.67,-299.59 1431.25,-291.115 1112.15,-248.494 1099.59,-246.816 1086.47,-244.655 1073.52,-242.273"/>
<polygon fill="black" stroke="black" points="1074.14,-238.828 1063.66,-240.413 1072.84,-245.707 1074.14,-238.828"/>
</g>
<!-- TIM&#45;&gt;FileNetCDF1 -->
<g id="edge5" class="edge"><title>TIM&#45;&gt;FileNetCDF1</title>
<path fill="none" stroke="black" d="M1930.57,-299.642C1849.22,-294.175 1609.55,-276.696 1412.15,-248.494 1398.74,-246.578 1384.71,-244.296 1370.84,-241.868"/>
<polygon fill="black" stroke="black" points="1371.24,-238.384 1360.78,-240.078 1370.01,-245.276 1371.24,-238.384"/>
</g>
<!-- TIM&#45;&gt;ROI4 -->
<g id="edge7" class="edge"><title>TIM&#45;&gt;ROI4</title>
<path fill="none" stroke="black" d="M1931.7,-296.375C1882.05,-287.084 1774.05,-266.716 1683.15,-248.494 1672.08,-246.275 1660.52,-243.918 1649.01,-241.548"/>
<polygon fill="black" stroke="black" points="1649.42,-238.059 1638.92,-239.464 1648,-244.915 1649.42,-238.059"/>
</g>
<!-- TIM&#45;&gt;PROC1 -->
<g id="edge8" class="edge"><title>TIM&#45;&gt;PROC1</title>
<path fill="none" stroke="black" d="M1938.79,-289.655C1921.65,-279.683 1896.31,-264.949 1873.36,-251.604"/>
<polygon fill="black" stroke="black" points="1875.11,-248.572 1864.7,-246.57 1871.59,-254.623 1875.11,-248.572"/>
</g>
<!-- TIM&#45;&gt;FileNexus1 -->
<g id="edge9" class="edge"><title>TIM&#45;&gt;FileNexus1</title>
<path fill="none" stroke="black" d="M1979.51,-289.655C1996.51,-279.766 2021.57,-265.194 2044.37,-251.937"/>
<polygon fill="black" stroke="black" points="2046.42,-254.794 2053.3,-246.741 2042.9,-248.743 2046.42,-254.794"/>
</g>
<!-- TIM&#45;&gt;STATS5 -->
<g id="edge10" class="edge"><title>TIM&#45;&gt;STATS5</title>
<path fill="none" stroke="black" d="M1986.6,-296.56C2037.33,-287.399 2149.16,-267.01 2243.15,-248.494 2254.21,-246.315 2265.76,-243.992 2277.26,-241.65"/>
<polygon fill="black" stroke="black" points="2278.25,-245.021 2287.35,-239.589 2276.85,-238.163 2278.25,-245.021"/>
</g>
<!-- TIM&#45;&gt;CC2 -->
<g id="edge11" class="edge"><title>TIM&#45;&gt;CC2</title>
<path fill="none" stroke="black" d="M1987.8,-299.985C2070.47,-295.374 2316.34,-279.834 2518.15,-248.494 2529.65,-246.708 2541.65,-244.536 2553.53,-242.197"/>
<polygon fill="black" stroke="black" points="2554.34,-245.602 2563.46,-240.197 2552.96,-238.74 2554.34,-245.602"/>
</g>
<!-- TIM&#45;&gt;CC1 -->
<g id="edge12" class="edge"><title>TIM&#45;&gt;CC1</title>
<path fill="none" stroke="black" d="M1988.07,-301.187C2094.28,-299.732 2472.76,-291.637 2781.15,-248.494 2792.85,-246.857 2805.07,-244.751 2817.13,-242.427"/>
<polygon fill="black" stroke="black" points="2818.09,-245.806 2827.22,-240.428 2816.73,-238.939 2818.09,-245.806"/>
</g>
<!-- TIM&#45;&gt;ROI2 -->
<g id="edge13" class="edge"><title>TIM&#45;&gt;ROI2</title>
<path fill="none" stroke="black" d="M1988.22,-301.761C2114.46,-302.565 2627.5,-302.174 3044.15,-248.494 3056.52,-246.9 3069.45,-244.779 3082.19,-242.41"/>
<polygon fill="black" stroke="black" points="3083.19,-245.782 3092.35,-240.464 3081.87,-238.907 3083.19,-245.782"/>
</g>
<!-- TIM&#45;&gt;ROI1 -->
<g id="edge15" class="edge"><title>TIM&#45;&gt;ROI1</title>
<path fill="none" stroke="black" d="M1987.95,-301.022C2159.13,-298.121 3044.42,-281.711 3314.15,-248.494 3326.84,-246.931 3340.1,-244.798 3353.15,-242.398"/>
<polygon fill="black" stroke="black" points="3353.91,-245.817 3363.08,-240.515 3352.61,-238.939 3353.91,-245.817"/>
</g>
<!-- TIM&#45;&gt;FileJPEG1 -->
<g id="edge19" class="edge"><title>TIM&#45;&gt;FileJPEG1</title>
<path fill="none" stroke="black" d="M1987.94,-301.211C2178.31,-299.239 3258.13,-286.508 3585.15,-248.494 3598.42,-246.951 3612.31,-244.811 3625.97,-242.392"/>
<polygon fill="black" stroke="black" points="3626.66,-245.825 3635.87,-240.586 3625.4,-238.939 3626.66,-245.825"/>
</g>
</g>
</svg>
