<?xml version="1.0" encoding="UTF-8" standalone="no"?>
<!DOCTYPE svg PUBLIC "-//W3C//DTD SVG 1.1//EN"
 "http://www.w3.org/Graphics/SVG/1.1/DTD/svg11.dtd">
<!-- Generated by graphviz version 2.38.0 (20140413.2041)
 -->
<!-- Title: %3 Pages: 1 -->
<svg width="1352pt" height="399pt"
 viewBox="0.00 0.00 1351.80 399.20" xmlns="http://www.w3.org/2000/svg" xmlns:xlink="http://www.w3.org/1999/xlink">
<g id="graph0" class="graph" transform="scale(1 1) rotate(0) translate(4 395.2)">
<title>%3</title>
<polygon fill="white" stroke="none" points="-4,4 -4,-395.2 1347.8,-395.2 1347.8,4 -4,4"/>
<!-- 1 -->
<g id="node1" class="node"><title>1</title>
<ellipse fill="none" stroke="black" cx="838.538" cy="-284.4" rx="149.109" ry="18"/>
<text text-anchor="middle" x="838.538" y="-280.2" font-family="Times,serif" font-size="14.00">XF:03IDC&#45;ES{SPod:1}Move&#45;Seq_</text>
</g>
<!-- 2 -->
<g id="node2" class="node"><title>2</title>
<ellipse fill="none" stroke="black" cx="498.538" cy="-195.6" rx="153.204" ry="18"/>
<text text-anchor="middle" x="498.538" y="-191.4" font-family="Times,serif" font-size="14.00">XF:03IDC&#45;ES{SPod:1}Move&#45;Cmd_</text>
</g>
<!-- 1&#45;&gt;2 -->
<g id="edge1" class="edge"><title>1&#45;&gt;2</title>
<path fill="none" stroke="black" d="M751.973,-269.645C720.522,-263.978 684.84,-256.765 652.765,-248.4 618.633,-239.498 581.1,-226.954 551.607,-216.44"/>
<polygon fill="black" stroke="black" points="552.524,-213.051 541.93,-212.961 550.156,-219.638 552.524,-213.051"/>
<text text-anchor="middle" x="709.924" y="-235.8" font-family="Times,serif" font-size="14.00">output_link_3/value</text>
</g>
<!-- 3 -->
<g id="node3" class="node"><title>3</title>
<ellipse fill="none" stroke="black" cx="838.538" cy="-195.6" rx="168.25" ry="18"/>
<text text-anchor="middle" x="838.538" y="-191.4" font-family="Times,serif" font-size="14.00">XF:03IDC&#45;ES{SPod:1}MotionRequest_</text>
</g>
<!-- 1&#45;&gt;3 -->
<g id="edge2" class="edge"><title>1&#45;&gt;3</title>
<path fill="none" stroke="black" d="M791.522,-267.235C783.648,-262.408 776.507,-256.239 771.765,-248.4 764.608,-236.568 771.772,-226.427 783.682,-218.336"/>
<polygon fill="black" stroke="black" points="785.751,-221.177 792.567,-213.066 782.181,-215.157 785.751,-221.177"/>
<text text-anchor="middle" x="828.924" y="-235.8" font-family="Times,serif" font-size="14.00">output_link_4/value</text>
</g>
<!-- 1&#45;&gt;3 -->
<g id="edge3" class="edge"><title>1&#45;&gt;3</title>
<path fill="none" stroke="black" d="M868.205,-266.716C880.746,-257.33 891.108,-244.854 884.538,-231.6 882.528,-227.546 879.799,-223.834 876.667,-220.469"/>
<polygon fill="black" stroke="black" points="879.01,-217.869 869.287,-213.661 874.264,-223.014 879.01,-217.869"/>
<text text-anchor="middle" x="942.924" y="-235.8" font-family="Times,serif" font-size="14.00">output_link_1/value</text>
</g>
<!-- 4 -->
<g id="node4" class="node"><title>4</title>
<ellipse fill="none" stroke="black" cx="1184.54" cy="-195.6" rx="159.026" ry="18"/>
<text text-anchor="middle" x="1184.54" y="-191.4" font-family="Times,serif" font-size="14.00">XF:03IDC&#45;ES{SPod:1}BusyMoving_</text>
</g>
<!-- 1&#45;&gt;4 -->
<g id="edge4" class="edge"><title>1&#45;&gt;4</title>
<path fill="none" stroke="black" d="M913.124,-268.728C941.527,-262.84 974.127,-255.718 1003.54,-248.4 1043.23,-238.523 1087.37,-225.924 1122.12,-215.624"/>
<polygon fill="black" stroke="black" points="1123.54,-218.854 1132.13,-212.646 1121.55,-212.145 1123.54,-218.854"/>
<text text-anchor="middle" x="1124.92" y="-235.8" font-family="Times,serif" font-size="14.00">output_link_2/value</text>
</g>
<!-- 6 -->
<g id="node6" class="node"><title>6</title>
<ellipse fill="none" stroke="black" cx="617.538" cy="-106.8" rx="145.68" ry="18"/>
<text text-anchor="middle" x="617.538" y="-102.6" font-family="Times,serif" font-size="14.00">XF:03IDC&#45;ES{SPod:1}Moving&#45;I_</text>
</g>
<!-- 3&#45;&gt;6 -->
<g id="edge7" class="edge"><title>3&#45;&gt;6</title>
<path fill="none" stroke="black" d="M773.851,-178.925C754.795,-173.579 734.089,-167.043 715.546,-159.6 694.71,-151.236 672.51,-139.737 654.517,-129.698"/>
<polygon fill="black" stroke="black" points="655.947,-126.486 645.521,-124.606 652.499,-132.578 655.947,-126.486"/>
<text text-anchor="middle" x="755.034" y="-147" font-family="Times,serif" font-size="14.00">value/input_b</text>
</g>
<!-- 3&#45;&gt;6 -->
<g id="edge9" class="edge"><title>3&#45;&gt;6</title>
<path fill="none" stroke="black" d="M827.758,-177.494C819.53,-165.888 807.142,-151.181 792.538,-142.8 775.756,-133.169 756.748,-126.154 737.599,-121.052"/>
<polygon fill="black" stroke="black" points="738.441,-117.655 727.891,-118.626 736.744,-124.446 738.441,-117.655"/>
<text text-anchor="middle" x="851.034" y="-147" font-family="Times,serif" font-size="14.00">value/input_b</text>
</g>
<!-- 5 -->
<g id="node5" class="node"><title>5</title>
<ellipse fill="none" stroke="black" cx="617.538" cy="-18" rx="141.023" ry="18"/>
<text text-anchor="middle" x="617.538" y="-13.8" font-family="Times,serif" font-size="14.00">XF:03IDC&#45;ES{SPod:1}Moving&#45;I</text>
</g>
<!-- 6&#45;&gt;5 -->
<g id="edge5" class="edge"><title>6&#45;&gt;5</title>
<path fill="none" stroke="black" d="M617.538,-88.6511C617.538,-76.5249 617.538,-60.019 617.538,-46.119"/>
<polygon fill="black" stroke="black" points="621.038,-46.1132 617.538,-36.1133 614.038,-46.1133 621.038,-46.1132"/>
<text text-anchor="middle" x="688.297" y="-58.2" font-family="Times,serif" font-size="14.00">value/input_specification</text>
</g>
<!-- 7 -->
<g id="node7" class="node"><title>7</title>
<ellipse fill="none" stroke="black" cx="163.538" cy="-195.6" rx="163.576" ry="18"/>
<text text-anchor="middle" x="163.538" y="-191.4" font-family="Times,serif" font-size="14.00">XF:03IDC&#45;ES{SPod:1}MovingRaw&#45;I_</text>
</g>
<!-- 7&#45;&gt;6 -->
<g id="edge6" class="edge"><title>7&#45;&gt;6</title>
<path fill="none" stroke="black" d="M241.325,-179.728C322.165,-164.272 448.331,-140.151 531.949,-124.164"/>
<polygon fill="black" stroke="black" points="532.765,-127.571 541.93,-122.255 531.451,-120.696 532.765,-127.571"/>
<text text-anchor="middle" x="469.641" y="-147" font-family="Times,serif" font-size="14.00">value/input_a</text>
</g>
<!-- 7&#45;&gt;6 -->
<g id="edge8" class="edge"><title>7&#45;&gt;6</title>
<path fill="none" stroke="black" d="M281.014,-183.026C380.911,-173.148 508.7,-160.408 511.538,-159.6 535.687,-152.724 561.014,-140.555 580.854,-129.74"/>
<polygon fill="black" stroke="black" points="582.811,-132.656 589.84,-124.729 579.402,-126.542 582.811,-132.656"/>
<text text-anchor="middle" x="595.641" y="-147" font-family="Times,serif" font-size="14.00">value/input_a</text>
</g>
<!-- 8 -->
<g id="node8" class="node"><title>8</title>
<ellipse fill="none" stroke="black" cx="838.538" cy="-373.2" rx="148.547" ry="18"/>
<text text-anchor="middle" x="838.538" y="-369" font-family="Times,serif" font-size="14.00">XF:03IDC&#45;ES{SPod:1}Move&#45;Cmd</text>
</g>
<!-- 8&#45;&gt;1 -->
<g id="edge10" class="edge"><title>8&#45;&gt;1</title>
<path fill="none" stroke="black" d="M838.538,-355.051C838.538,-342.925 838.538,-326.419 838.538,-312.519"/>
<polygon fill="black" stroke="black" points="842.038,-312.513 838.538,-302.513 835.038,-312.513 842.038,-312.513"/>
<text text-anchor="middle" x="892.185" y="-324.6" font-family="Times,serif" font-size="14.00">forward_link/value</text>
</g>
</g>
</svg>
