<?xml version="1.0" encoding="UTF-8" standalone="no"?>
<!DOCTYPE svg PUBLIC "-//W3C//DTD SVG 1.1//EN"
 "http://www.w3.org/Graphics/SVG/1.1/DTD/svg11.dtd">
<!-- Generated by graphviz version 2.38.0 (20140413.2041)
 -->
<!-- Title: %3 Pages: 1 -->
<svg width="1352pt" height="332pt"
 viewBox="0.00 0.00 1351.80 332.00" xmlns="http://www.w3.org/2000/svg" xmlns:xlink="http://www.w3.org/1999/xlink">
<g id="graph0" class="graph" transform="scale(1 1) rotate(0) translate(4 328)">
<title>%3</title>
<polygon fill="white" stroke="none" points="-4,4 -4,-328 1347.8,-328 1347.8,4 -4,4"/>
<!-- 1 -->
<g id="node1" class="node"><title>1</title>
<ellipse fill="none" stroke="black" cx="838.538" cy="-234" rx="149.109" ry="18"/>
<text text-anchor="middle" x="838.538" y="-229.8" font-family="Times,serif" font-size="14.00">XF:03IDC&#45;ES{SPod:1}Move&#45;Seq_</text>
</g>
<!-- 2 -->
<g id="node2" class="node"><title>2</title>
<ellipse fill="none" stroke="black" cx="498.538" cy="-162" rx="153.204" ry="18"/>
<text text-anchor="middle" x="498.538" y="-157.8" font-family="Times,serif" font-size="14.00">XF:03IDC&#45;ES{SPod:1}Move&#45;Cmd_</text>
</g>
<!-- 1&#45;&gt;2 -->
<g id="edge1" class="edge"><title>1&#45;&gt;2</title>
<path fill="none" stroke="black" d="M766.433,-218.155C712.094,-206.967 637.512,-191.612 580.838,-179.944"/>
<polygon fill="black" stroke="black" points="581.332,-176.473 570.832,-177.884 579.921,-183.329 581.332,-176.473"/>
<text text-anchor="middle" x="585.992" y="-182.084" font-family="Times,serif" font-size="14.00">value</text>
<text text-anchor="middle" x="727.152" y="-205.555" font-family="Times,serif" font-size="14.00">output_link_3</text>
</g>
<!-- 3 -->
<g id="node3" class="node"><title>3</title>
<ellipse fill="none" stroke="black" cx="838.538" cy="-162" rx="168.25" ry="18"/>
<text text-anchor="middle" x="838.538" y="-157.8" font-family="Times,serif" font-size="14.00">XF:03IDC&#45;ES{SPod:1}MotionRequest_</text>
</g>
<!-- 1&#45;&gt;3 -->
<g id="edge2" class="edge"><title>1&#45;&gt;3</title>
<path fill="none" stroke="black" d="M832.622,-215.697C831.827,-207.983 831.6,-198.712 831.943,-190.112"/>
<polygon fill="black" stroke="black" points="835.436,-190.324 832.643,-180.104 828.453,-189.836 835.436,-190.324"/>
<text text-anchor="middle" x="817.483" y="-184.304" font-family="Times,serif" font-size="14.00">value</text>
<text text-anchor="middle" x="871.903" y="-203.097" font-family="Times,serif" font-size="14.00">output_link_1</text>
</g>
<!-- 1&#45;&gt;3 -->
<g id="edge4" class="edge"><title>1&#45;&gt;3</title>
<path fill="none" stroke="black" d="M844.454,-215.697C845.249,-207.983 845.476,-198.712 845.133,-190.112"/>
<polygon fill="black" stroke="black" points="848.623,-189.836 844.433,-180.104 841.64,-190.324 848.623,-189.836"/>
<text text-anchor="middle" x="859.593" y="-184.304" font-family="Times,serif" font-size="14.00">value</text>
<text text-anchor="middle" x="805.173" y="-203.097" font-family="Times,serif" font-size="14.00">output_link_4</text>
</g>
<!-- 4 -->
<g id="node4" class="node"><title>4</title>
<ellipse fill="none" stroke="black" cx="1184.54" cy="-162" rx="159.026" ry="18"/>
<text text-anchor="middle" x="1184.54" y="-157.8" font-family="Times,serif" font-size="14.00">XF:03IDC&#45;ES{SPod:1}BusyMoving_</text>
</g>
<!-- 1&#45;&gt;4 -->
<g id="edge3" class="edge"><title>1&#45;&gt;4</title>
<path fill="none" stroke="black" d="M911.493,-218.24C966.783,-207.054 1042.84,-191.666 1100.65,-179.972"/>
<polygon fill="black" stroke="black" points="1101.38,-183.394 1110.49,-177.981 1100,-176.533 1101.38,-183.394"/>
<text text-anchor="middle" x="1095.33" y="-182.181" font-family="Times,serif" font-size="14.00">value</text>
<text text-anchor="middle" x="950.774" y="-205.64" font-family="Times,serif" font-size="14.00">output_link_2</text>
</g>
<!-- 6 -->
<g id="node6" class="node"><title>6</title>
<ellipse fill="none" stroke="black" cx="500.538" cy="-90" rx="145.68" ry="18"/>
<text text-anchor="middle" x="500.538" y="-85.8" font-family="Times,serif" font-size="14.00">XF:03IDC&#45;ES{SPod:1}Moving&#45;I_</text>
</g>
<!-- 3&#45;&gt;6 -->
<g id="edge7" class="edge"><title>3&#45;&gt;6</title>
<path fill="none" stroke="black" d="M764.78,-145.725C710.724,-134.53 637.365,-119.337 581.657,-107.8"/>
<polygon fill="black" stroke="black" points="582.323,-104.364 571.821,-105.763 580.904,-111.218 582.323,-104.364"/>
<text text-anchor="middle" x="550.431" y="-109.963" font-family="Times,serif" font-size="14.00">input_b</text>
<text text-anchor="middle" x="779.94" y="-133.125" font-family="Times,serif" font-size="14.00">value</text>
</g>
<!-- 5 -->
<g id="node5" class="node"><title>5</title>
<ellipse fill="none" stroke="black" cx="500.538" cy="-18" rx="141.023" ry="18"/>
<text text-anchor="middle" x="500.538" y="-13.8" font-family="Times,serif" font-size="14.00">XF:03IDC&#45;ES{SPod:1}Moving&#45;I</text>
</g>
<!-- 6&#45;&gt;5 -->
<g id="edge5" class="edge"><title>6&#45;&gt;5</title>
<path fill="none" stroke="black" d="M500.538,-71.6966C500.538,-63.9827 500.538,-54.7125 500.538,-46.1124"/>
<polygon fill="black" stroke="black" points="504.038,-46.1043 500.538,-36.1043 497.038,-46.1044 504.038,-46.1043"/>
<text text-anchor="middle" x="446.884" y="-40.3043" font-family="Times,serif" font-size="14.00">input_specification</text>
<text text-anchor="middle" x="485.378" y="-59.0966" font-family="Times,serif" font-size="14.00">value</text>
</g>
<!-- 7 -->
<g id="node7" class="node"><title>7</title>
<ellipse fill="none" stroke="black" cx="163.538" cy="-162" rx="163.576" ry="18"/>
<text text-anchor="middle" x="163.538" y="-157.8" font-family="Times,serif" font-size="14.00">XF:03IDC&#45;ES{SPod:1}MovingRaw&#45;I_</text>
</g>
<!-- 7&#45;&gt;6 -->
<g id="edge6" class="edge"><title>7&#45;&gt;6</title>
<path fill="none" stroke="black" d="M236.662,-145.811C290.626,-134.602 364.049,-119.351 419.746,-107.782"/>
<polygon fill="black" stroke="black" points="420.5,-111.2 429.579,-105.739 419.076,-104.346 420.5,-111.2"/>
<text text-anchor="middle" x="408.581" y="-109.939" font-family="Times,serif" font-size="14.00">input_a</text>
<text text-anchor="middle" x="251.822" y="-133.211" font-family="Times,serif" font-size="14.00">value</text>
</g>
<!-- 8 -->
<g id="node8" class="node"><title>8</title>
<ellipse fill="none" stroke="black" cx="838.538" cy="-306" rx="148.547" ry="18"/>
<text text-anchor="middle" x="838.538" y="-301.8" font-family="Times,serif" font-size="14.00">XF:03IDC&#45;ES{SPod:1}Move&#45;Cmd</text>
</g>
<!-- 8&#45;&gt;1 -->
<g id="edge8" class="edge"><title>8&#45;&gt;1</title>
<path fill="none" stroke="black" d="M838.538,-287.697C838.538,-279.983 838.538,-270.712 838.538,-262.112"/>
<polygon fill="black" stroke="black" points="842.038,-262.104 838.538,-252.104 835.038,-262.104 842.038,-262.104"/>
<text text-anchor="middle" x="796.173" y="-256.304" font-family="Times,serif" font-size="14.00">process_record</text>
<text text-anchor="middle" x="801.996" y="-275.097" font-family="Times,serif" font-size="14.00">forward_link</text>
</g>
</g>
</svg>
