<?xml version="1.0" encoding="UTF-8" standalone="no"?>
<!DOCTYPE svg PUBLIC "-//W3C//DTD SVG 1.1//EN"
 "http://www.w3.org/Graphics/SVG/1.1/DTD/svg11.dtd">
<!-- Generated by graphviz version 2.38.0 (20140413.2041)
 -->
<!-- Title: %3 Pages: 1 -->
<svg width="1178pt" height="656pt"
 viewBox="0.00 0.00 1178.00 656.00" xmlns="http://www.w3.org/2000/svg" xmlns:xlink="http://www.w3.org/1999/xlink">
<g id="graph0" class="graph" transform="scale(1 1) rotate(0) translate(4 652)">
<title>%3</title>
<polygon fill="white" stroke="none" points="-4,4 -4,-652 1174,-652 1174,4 -4,4"/>
<g id="clust1" class="cluster"><title>cluster_1</title>
<polygon fill="none" stroke="black" stroke-width="2" points="461,-239.8 461,-640 677,-640 677,-239.8 461,-239.8"/>
<text text-anchor="middle" x="569" y="-623.4" font-family="Times,serif" font-size="14.00">XF:03IDC&#45;ES{SPod:1}Move&#45;Seq_</text>
</g>
<g id="clust2" class="cluster"><title>cluster_7</title>
<polygon fill="none" stroke="black" stroke-width="2" points="925,-325.6 925,-403.4 1162,-403.4 1162,-325.6 925,-325.6"/>
<text text-anchor="middle" x="1043.5" y="-386.8" font-family="Times,serif" font-size="14.00">XF:03IDC&#45;ES{SPod:1}MovingRaw&#45;I_</text>
</g>
<g id="clust3" class="cluster"><title>cluster_3</title>
<polygon fill="none" stroke="black" stroke-width="2" points="223,-411.4 223,-489.2 453,-489.2 453,-411.4 223,-411.4"/>
<text text-anchor="middle" x="338" y="-472.6" font-family="Times,serif" font-size="14.00">XF:03IDC&#45;ES{SPod:1}BusyMoving_</text>
</g>
<g id="clust4" class="cluster"><title>cluster_8</title>
<polygon fill="none" stroke="black" stroke-width="2" points="238,-325.6 238,-403.4 453,-403.4 453,-325.6 238,-325.6"/>
<text text-anchor="middle" x="345.5" y="-386.8" font-family="Times,serif" font-size="14.00">XF:03IDC&#45;ES{SPod:1}Move&#45;Cmd</text>
</g>
<g id="clust5" class="cluster"><title>cluster_5</title>
<polygon fill="none" stroke="black" stroke-width="2" points="872,-8 872,-85.8 1076,-85.8 1076,-8 872,-8"/>
<text text-anchor="middle" x="974" y="-69.2" font-family="Times,serif" font-size="14.00">XF:03IDC&#45;ES{SPod:1}Moving&#45;I</text>
</g>
<g id="clust6" class="cluster"><title>cluster_2</title>
<polygon fill="none" stroke="black" stroke-width="2" points="685,-239.8 685,-317.6 929,-317.6 929,-239.8 685,-239.8"/>
<text text-anchor="middle" x="807" y="-301" font-family="Times,serif" font-size="14.00">XF:03IDC&#45;ES{SPod:1}MotionRequest_</text>
</g>
<g id="clust7" class="cluster"><title>cluster_4</title>
<polygon fill="none" stroke="black" stroke-width="2" points="8,-325.6 8,-403.4 230,-403.4 230,-325.6 8,-325.6"/>
<text text-anchor="middle" x="119" y="-386.8" font-family="Times,serif" font-size="14.00">XF:03IDC&#45;ES{SPod:1}Move&#45;Cmd_</text>
</g>
<g id="clust8" class="cluster"><title>cluster_6</title>
<polygon fill="none" stroke="black" stroke-width="2" points="937,-93.8 937,-317.6 1148,-317.6 1148,-93.8 937,-93.8"/>
<text text-anchor="middle" x="1042.5" y="-301" font-family="Times,serif" font-size="14.00">XF:03IDC&#45;ES{SPod:1}Moving&#45;I_</text>
</g>
<!-- 1 -->
<g id="node1" class="node"><title>1</title>
<polygon fill="lightgrey" stroke="black" points="471.719,-570.7 471.719,-606.7 566.281,-606.7 566.281,-570.7 471.719,-570.7"/>
<text text-anchor="middle" x="519" y="-584.5" font-family="Times,serif" font-size="14.00">output_link_1</text>
</g>
<!-- 3 -->
<g id="node2" class="node"><title>3</title>
<polygon fill="lightgrey" stroke="black" points="471.719,-497.7 471.719,-533.7 566.281,-533.7 566.281,-497.7 471.719,-497.7"/>
<text text-anchor="middle" x="519" y="-511.5" font-family="Times,serif" font-size="14.00">output_link_2</text>
</g>
<!-- 1&#45;&gt;3 -->
<!-- 2 -->
<g id="node10" class="node"><title>2</title>
<polygon fill="lightgrey" stroke="black" points="693,-248.3 693,-284.3 747,-284.3 747,-248.3 693,-248.3"/>
<text text-anchor="middle" x="719.66" y="-262.1" font-family="Times,serif" font-size="14.00">value</text>
</g>
<!-- 1&#45;&gt;2 -->
<g id="edge7" class="edge"><title>1&#45;&gt;2</title>
<path fill="none" stroke="black" stroke-width="2" d="M539.963,-570.497C551.198,-560.618 564.789,-547.55 575,-534.2 636.593,-453.672 687.453,-343.566 708.963,-293.726"/>
<polygon fill="black" stroke="black" stroke-width="2" points="712.274,-294.883 712.984,-284.312 705.837,-292.133 712.274,-294.883"/>
</g>
<!-- 5 -->
<g id="node3" class="node"><title>5</title>
<polygon fill="lightgrey" stroke="black" points="471.719,-419.9 471.719,-455.9 566.281,-455.9 566.281,-419.9 471.719,-419.9"/>
<text text-anchor="middle" x="519" y="-433.7" font-family="Times,serif" font-size="14.00">output_link_3</text>
</g>
<!-- 3&#45;&gt;5 -->
<!-- 4 -->
<g id="node7" class="node"><title>4</title>
<polygon fill="lightgrey" stroke="black" points="391,-419.9 391,-455.9 445,-455.9 445,-419.9 391,-419.9"/>
<text text-anchor="middle" x="417.66" y="-433.7" font-family="Times,serif" font-size="14.00">value</text>
</g>
<!-- 3&#45;&gt;4 -->
<g id="edge8" class="edge"><title>3&#45;&gt;4</title>
<path fill="none" stroke="black" stroke-width="2" d="M471.525,-498.256C466.403,-495.596 461.445,-492.584 457,-489.2 448.164,-482.473 440.255,-473.275 433.907,-464.584"/>
<polygon fill="black" stroke="black" stroke-width="2" points="436.663,-462.415 428.103,-456.172 430.901,-466.39 436.663,-462.415"/>
</g>
<!-- 7 -->
<g id="node4" class="node"><title>7</title>
<polygon fill="lightgrey" stroke="black" points="471.719,-334.1 471.719,-370.1 566.281,-370.1 566.281,-334.1 471.719,-334.1"/>
<text text-anchor="middle" x="519" y="-347.9" font-family="Times,serif" font-size="14.00">output_link_4</text>
</g>
<!-- 5&#45;&gt;7 -->
<!-- 6 -->
<g id="node11" class="node"><title>6</title>
<polygon fill="lightgrey" stroke="black" points="168,-334.1 168,-370.1 222,-370.1 222,-334.1 168,-334.1"/>
<text text-anchor="middle" x="194.66" y="-347.9" font-family="Times,serif" font-size="14.00">value</text>
</g>
<!-- 5&#45;&gt;6 -->
<g id="edge9" class="edge"><title>5&#45;&gt;6</title>
<path fill="none" stroke="black" stroke-width="2" d="M483.629,-419.843C475.095,-416.436 465.873,-413.319 457,-411.4 432.767,-406.158 256.065,-414.707 234,-403.4 223.567,-398.053 215.083,-388.499 208.725,-379.143"/>
<polygon fill="black" stroke="black" stroke-width="2" points="211.532,-377.03 203.285,-370.378 205.584,-380.72 211.532,-377.03"/>
</g>
<!-- 14 -->
<g id="node5" class="node"><title>14</title>
<polygon fill="lightgrey" stroke="black" points="468.635,-248.3 468.635,-284.3 569.365,-284.3 569.365,-248.3 468.635,-248.3"/>
<text text-anchor="middle" x="519" y="-262.1" font-family="Times,serif" font-size="14.00">process_record</text>
</g>
<!-- 7&#45;&gt;14 -->
<!-- 7&#45;&gt;2 -->
<g id="edge10" class="edge"><title>7&#45;&gt;2</title>
<path fill="none" stroke="black" stroke-width="2" d="M566.608,-341.306C614.291,-331.488 680.688,-317.795 681,-317.6 690.806,-311.485 699.108,-301.972 705.499,-292.858"/>
<polygon fill="black" stroke="black" stroke-width="2" points="708.505,-294.656 711.028,-284.366 702.639,-290.837 708.505,-294.656"/>
</g>
<!-- 12 -->
<g id="node6" class="node"><title>12</title>
<polygon fill="lightgrey" stroke="black" points="947,-334.1 947,-370.1 1001,-370.1 1001,-334.1 947,-334.1"/>
<text text-anchor="middle" x="973.66" y="-347.9" font-family="Times,serif" font-size="14.00">value</text>
</g>
<!-- 11 -->
<g id="node14" class="node"><title>11</title>
<polygon fill="lightgrey" stroke="black" points="945.002,-248.3 945.002,-284.3 1003,-284.3 1003,-248.3 945.002,-248.3"/>
<text text-anchor="middle" x="974" y="-262.1" font-family="Times,serif" font-size="14.00">input_a</text>
</g>
<!-- 12&#45;&gt;11 -->
<g id="edge13" class="edge"><title>12&#45;&gt;11</title>
<path fill="none" stroke="red" stroke-width="2" d="M974,-333.737C974,-322.426 974,-307.431 974,-294.55"/>
<polygon fill="red" stroke="red" stroke-width="2" points="977.5,-294.354 974,-284.354 970.5,-294.354 977.5,-294.354"/>
</g>
<!-- 13 -->
<g id="node8" class="node"><title>13</title>
<polygon fill="lightgrey" stroke="black" points="355.458,-334.1 355.458,-370.1 444.542,-370.1 444.542,-334.1 355.458,-334.1"/>
<text text-anchor="middle" x="400" y="-347.9" font-family="Times,serif" font-size="14.00">forward_link</text>
</g>
<!-- 13&#45;&gt;14 -->
<g id="edge14" class="edge"><title>13&#45;&gt;14</title>
<path fill="none" stroke="black" d="M424.369,-333.94C442.257,-321.343 466.745,-304.098 486.329,-290.307"/>
<polygon fill="black" stroke="black" points="488.503,-293.057 494.664,-284.437 484.473,-287.333 488.503,-293.057"/>
</g>
<!-- 8 -->
<g id="node9" class="node"><title>8</title>
<polygon fill="lightgrey" stroke="black" points="912.346,-16.5 912.346,-52.5 1035.65,-52.5 1035.65,-16.5 912.346,-16.5"/>
<text text-anchor="middle" x="974" y="-30.3" font-family="Times,serif" font-size="14.00">input_specification</text>
</g>
<!-- 10 -->
<g id="node13" class="node"><title>10</title>
<polygon fill="lightgrey" stroke="black" points="944.609,-175.3 944.609,-211.3 1003.39,-211.3 1003.39,-175.3 944.609,-175.3"/>
<text text-anchor="middle" x="974" y="-189.1" font-family="Times,serif" font-size="14.00">input_b</text>
</g>
<!-- 2&#45;&gt;10 -->
<g id="edge12" class="edge"><title>2&#45;&gt;10</title>
<path fill="none" stroke="red" stroke-width="2" d="M747.182,-257.702C792.175,-245.125 882.32,-219.927 934.397,-205.37"/>
<polygon fill="red" stroke="red" stroke-width="2" points="935.592,-208.67 944.28,-202.608 933.707,-201.929 935.592,-208.67"/>
</g>
<!-- 9 -->
<g id="node12" class="node"><title>9</title>
<polygon fill="lightgrey" stroke="black" points="947,-102.3 947,-138.3 1001,-138.3 1001,-102.3 947,-102.3"/>
<text text-anchor="middle" x="973.66" y="-116.1" font-family="Times,serif" font-size="14.00">value</text>
</g>
<!-- 9&#45;&gt;8 -->
<g id="edge11" class="edge"><title>9&#45;&gt;8</title>
<path fill="none" stroke="red" stroke-width="2" d="M974,-101.937C974,-90.6256 974,-75.6313 974,-62.7503"/>
<polygon fill="red" stroke="red" stroke-width="2" points="977.5,-62.5544 974,-52.5544 970.5,-62.5545 977.5,-62.5544"/>
</g>
<!-- 10&#45;&gt;9 -->
<!-- 11&#45;&gt;10 -->
</g>
</svg>
